<svg xmlns="http://www.w3.org/2000/svg" viewBox="100 100 824 824" width="150" height="150">
  <path fill="#FF7A02" d="M445.963 110.001c82.756-16.112 169.853-.367 244.716 37.091 13.957 6.983 27.883 14.356 40.831 23.104 10.327 6.978 20.608 13.878 30.369 21.65 75.373 60.011 129.494 144.919 147.763 239.904 6.632 34.478 9.64 69.125 7.685 104.25-4.026 72.34-29.952 145.444-70.561 205.254-31.592 46.53-73.443 86.151-121.714 114.987-7.842 4.685-16.084 10.227-24.549 13.632-3.808 2.456-8.191 4.281-12.282 6.234l-22.403 10.111c-96.483 40.002-206.709 42.651-303.68 2.466-36.265-15.028-71.056-34.795-101.898-59.13-18.91-14.92-36.221-31.954-52.155-49.982-15.233-17.234-29.819-35.838-42.086-55.322-11.469-18.217-21.527-38.451-29.673-58.346-15.251-37.251-25.302-76.052-28.837-116.204-2.378-27.008-1.614-54.252.939-81.212 1.071-11.311 2.905-22.315 5.117-33.449.784-3.942 1.271-8.326 2.825-12.036.533-8.14 4.096-17.671 6.487-25.488l6.151-19.765c12.846-36.262 31.508-71.401 53.648-102.818 61.672-87.509 158.127-146.584 263.307-164.931Z"/>
  <path fill="#D52E04" d="m444.379 885.255-.308-.514 77.907 5.202 6.022.307.25.506c-1.214.16-2.391.289-3.557.684-26.72 1.321-54.081-1.192-80.314-6.185ZM704.812 751.186l5.644-.892c-1.376 2.321-4.677 4.242-6.871 5.822-6.016 4.331-12.527 8.108-18.941 11.82-7.395 4.28-15.145 8.62-23.075 11.838 2.832-3.31 9.256-6.185 13.084-8.424l18.924-11.553c3.996-2.563 7.648-5.51 11.235-8.611Z"/>
  <path fill="#fff" d="m580.685 808.28 1.065-.06.178.53c-10.182 2.141-20.039 4.595-30.38 6.114-34.199 5.022-70.557 3.312-104.17-4.736-.944-.312-1.754-.589-2.594-1.128 1.329-1.149 17.317 2.321 20.084 2.764 38.657 6.196 77.534 3.408 115.817-3.484Z"/>
  <path fill="#D52E04" d="M196.508 499.277c.168-13.455 1.085-26.666 2.677-40.027.542-4.547.711-10.209 2.627-14.39l5.464 11.025c-3.858 15.223-5.245 31.77-5.856 47.458-.119 3.06.233 17.802-1.069 19.654-.734-1.412-1.627-2.303-2.773-3.395-1.295-6.44-1.191-13.766-1.07-20.325Z"/>
  <path fill="#fff" d="m194.963 506.775.269-10.025h.447l.829 2.527c-.121 6.559-.225 13.885 1.07 20.325 1.642 14.723 3.23 29.185 6.145 43.742 7.919 39.552 23.261 77.395 44.711 111.53l20.647 29.887c.404 1.031.762 1.926.961 3.024l-15.973-20.614c-26.436-37.588-44.524-79.587-53.381-124.677-2.993-15.235-5.454-30.542-5.642-46.105l-.083-9.614Z"/>
  <path fill="#FED11B" d="M418.404 124.156 446 117.811c14.935-3.983 29.674-5.97 45-7.664 16.025-1.77 32.027-2.824 48.156-2.62 4.019.051 8.983-.508 12.841.556l-.247.417.125.778c-5.717 1.412-13.18 1.08-19.125 1.451-3.569.222-7.181 1.027-10.75 1.351-1.373.124-2.931-.133-4.194.429-1.135.505-3.655.34-5.056.582-1.353.234-2.631.073-4 .409-3.088.758-6.965.088-9.937 1.066-1.547.509-2.917-.248-4.313.679-1.251.002-3.111-.38-4 .5-1.422.002-2.799-.298-4 .5-1.185.002-2.647-.345-3.5.5-1.185.002-2.647-.345-3.5.5-2.074.05-5.23.176-7.195.823-.917.301-1.849.207-2.805.182l-.5.495c-1.385.04-2.445.319-3.75.5l-1.75.005-.5.495-.876.044c-5.489.319-12.099 1.565-17.374 3.127l-2.951.78c-1.847.492-3.691.729-5.549 1.25l-8 2-1.012.245-17.255 3.902-1.012-.294.064-.549c2.5-2.231 6.026-5.555 9.369-6.094Z"/>
  <defs>
    <linearGradient id="a" x1="739.996" x2="687.725" y1="840.999" y2="668.437" gradientUnits="userSpaceOnUse">
      <stop offset="0" stop-color="#CB1706"/>
      <stop offset="1" stop-color="#EC301C"/>
    </linearGradient>
  </defs>
  <path fill="url(#a)" d="m895.992 600.582 1.344-.422c.685 4.547-1.124 9.392-2.277 13.763-6.493 24.636-16.71 48.291-28.109 71.035L861.245 697l-2.748 4.875c-.434.868-1.059 1.604-1.5 2.5-.829 1.688-2.081 3.445-3 5.122l-.914 1.187c-.721.931-1.047 1.808-1.586 2.813-1.712 3.198-4.772 6.103-6.5 9.378l-10.5 14.622-.5.878c-2.499 4.222-6.413 8.189-9.384 12.147-1.032 1.375-2.557 2.289-3.116 3.975l-.338.277c-1.225 1.013-2.091 1.976-3.046 3.248-1.448 1.929-3.397 3.428-4.805 5.438-.523.747-1.002 1.207-1.668 1.81-4.746 4.302-9.54 9.285-13.895 13.98-1.8 1.941-3.569 4.384-5.748 5.747-1.187.744-2.277 2.308-3.372 3.25l-9.335 7.668-25.256 18.941-20.099 13.659-9.315 5.689c-1.17.695-3.114 1.545-3.961 2.571L684.5 855.131c-35.463 16.352-72.056 26.299-110.588 32.141-15.853 2.404-33.144 4.811-49.219 4.168 1.166-.395 2.343-.524 3.557-.684l-.25-.506-6.022-.307c5.902-.941 12.292-.836 18.288-1.168l23.575-2.38c14.968-2.168 30.197-4.641 44.905-8.157 45.38-10.847 89.021-29.954 128.089-55.41 65.103-42.419 115.483-103.089 144.161-175.385 6.078-15.322 11.58-30.677 14.996-46.861Z"/>
  <path fill="#E33A0D" d="M376.551 784.999c15.498.74 29.892-1.537 44.868-5.219 5.129-1.26 11.48-3.904 16.682-4 7.53 2.765 15.522 4.353 23.399 5.794 13.167 2.408 26.522 4.081 39.911 4.523-.691 1.894-2.129 2.29-3.9 3.12l-16.398 6.839c-9.71 3.988-19.65 8.043-30.113 9.546-1.558.224-3.174.539-4.75.542-1.889.003-3.695-.764-5.5.021l-.75-.42c-1.357-.395-3.126.45-4.25-.5-2.437.001-8.956-.692-10.75.5-1.237.003-1.939-.205-3 .5-1.237.003-1.939-.205-3 .5-1.237.003-1.939-.205-3 .5-1.331.002-2.368-.252-3.5.5-1.422.002-2.799-.298-4 .5-1.532.002-3.751-.33-5 .5-2.218-.017-5.765-.531-7.75.33l-.425-.064c-2.917-.415-6.263.019-9.018-.972l14.104-.368 28.814-3.811c-5.448-1.508-11.207-1.998-16.725-3.302-6.852-1.62-30.307-9.139-34.49-14.084-.47-.556-.907-.992-1.459-1.475ZM654.529 748.713c16.755 2.191 33.381 3.401 50.283 2.473-3.587 3.101-7.239 6.048-11.235 8.611l-18.924 11.553c-3.828 2.239-10.252 5.114-13.084 8.424-1.154 1.22-2.953 1.774-4.569 2.142v-.418l.313-.748-4.563 1.363c-6.483 1.917-14.012 2.431-20.75 2.506-15.415.172-29.777-.973-44.977-3.602-3.145-.545-7.713-.493-10.05-2.79 17.134-4.391 34.298-9.517 50.616-16.387 9.267-3.901 18.011-8.539 26.94-13.127Z"/>
  <path fill="#D52E04" d="M277.78 717.149c.398-2.607 1.316-5.308 1.918-7.903 1.307-5.633 2.519-11.273 4.552-16.701l1.686-.695c1.975 26.041 9.69 52.944 30.31 70.533 2.452 2.091 5.294 4.346 8.148 5.849 2.559 2.617 5.774 4.191 8.994 5.848 8.279 4.26 16.548 6.531 25.612 8.386 5.682 1.162 11.751 2.376 17.551 2.533.552.483.989.919 1.459 1.475 4.183 4.945 27.638 12.464 34.49 14.084 5.518 1.304 11.277 1.794 16.725 3.302l-28.814 3.811-14.104.368c-5.617-.169-11.188-1.214-16.695-2.285-22.918-4.457-48.748-15.462-62.17-35.62-4.335-6.511-9.217-13.423-11.705-20.887l-2.735-8.25-.247-.997c-.546-1.052-.5-.839-.5-2-.631-.946-.5-.937-.5-2-.71-1.065-.5-1.503-.5-2.75l-.505.25-1.375-1.375c-.647-1.145-.937-1.423-1.949-2.275l-.424-.353-.002-.747-2.174-2.102c-.62-.503-1.075-.84-1.498-1.541-.341-.566-.586-1.14-1.078-1.607-.722-.685-1.367-.996-1.898-1.878L280 721c-.526-.71-1.07-1.05-1.445-1.892l-.18-.483c-.47.783-.765 1.283-.767 2.217L277.5 723c-1.058 1.588-.197 4.319-.75 6.245-.258.9-.297.504-.217 1.277.084.802.253 1.524.173 2.337-.206 2.099-.013 4.067-.083 6.141l-.123 1.75c.456 2.26.485 3.804.375 6.18l-.219-1.68c-1.19-8.326-1.284-20.011 1.124-28.101Z"/>
  <path fill="#fff" d="M558.484 720.631c2.536-.321 7.558 2.472 10.046 3.411l23.25 8.319 33.196 9.546 19.372 4.176c2.844.594 7.76 1.059 10.181 2.63-8.929 4.588-17.673 9.226-26.94 13.127-16.318 6.87-33.482 11.996-50.616 16.387-25.303 5.548-49.606 8.489-75.562 7.87-13.389-.442-26.744-2.115-39.911-4.523-7.877-1.441-15.869-3.029-23.399-5.794l28.055-10.203c24.791-9.74 49.349-20.951 72.71-33.765 6.484-3.556 13.703-6.758 19.618-11.181Z"/>
  <defs>
    <linearGradient id="b" x1="511.206" x2="189.261" y1="749.796" y2="586.112" gradientUnits="userSpaceOnUse">
      <stop offset="0" stop-color="#DFC8B7"/>
      <stop offset="1" stop-color="#fff"/>
    </linearGradient>
  </defs>
  <path fill="url(#b)" d="M236.857 497.059c1.209 1.103 2.439 2.113 3.398 3.441 1.191 1.649 2.808 2.721 3.747 4.498.843 1.592 2.977 2.774 4 4.499 1.44 2.427 4.536 3.907 6 6.5.507.897 1.82 1.861 2.587 2.618l6.58 6.517c1.036 1.024 2.372 1.97 2.833 3.365.917.551 1.149.44 1.5 1.5l.421.311c3.551 2.662 6.334 7.128 10.08 9.189 1.055.582 1.171 1.555 2.499 2l.299.408c.788 1.05 1.419 1.797 2.454 2.595.938.723 1.758 1.534 2.745 2.245l1.895 1.553c.599.482.868.595 1.603.705.848.976 1.178 1.806 2.5 2 1.082 1.041 1.947 2.557 3.305 3.178 1.019.466 1.32 1.046 2.026 1.867.814.946-.04-.034 1.296.827L299.75 558l.625.003 1.375 1.497.748.003 1.335 1.769 2.339 2.815 13.472 11.477 43.168 33.984c5.568 2.813 10.962 7.865 16.188 11.407l42.685 27.855 43.986 25.911c7.774 4.338 17.128 8.135 24.122 13.578l38.287 18.65c5.363 2.506 11.196 5.629 16.862 7.323l5.638 2.562c2.544 1.189 5.711 2.065 7.904 3.797-5.915 4.423-13.134 7.625-19.618 11.181-23.361 12.814-47.919 24.025-72.71 33.765l-28.055 10.203c-5.202.096-11.553 2.74-16.682 4-14.976 3.682-29.37 5.959-44.868 5.219-5.8-.157-11.869-1.371-17.551-2.533-9.064-1.855-17.333-4.126-25.612-8.386-3.22-1.657-6.435-3.231-8.994-5.848-2.854-1.503-5.696-3.758-8.148-5.849-20.62-17.589-28.335-44.492-30.31-70.533l-.087-10.206c-.005-.729.198-2.589-.019-3.205-.275-.781-1.975-2.433-2.537-3.158l-5.633-7.671c-6.285-8.895-11.285-18.428-16.219-28.11-16.096-31.589-26.377-64.567-30.204-99.866-.92-8.805-1.74-17.741-1.706-26.599.007-1.779-.314-4.452.065-6.147.222-.99 1.734-2.476 2.406-3.282 1.757-2.103 3.314-4.284 4.855-6.547Z"/>
  <path fill="#CB916B" d="m489.793 688.299 38.287 18.65c5.363 2.506 11.196 5.629 16.862 7.323l5.638 2.562c2.544 1.189 5.711 2.065 7.904 3.797-5.915 4.423-13.134 7.625-19.618 11.181-23.361 12.814-47.919 24.025-72.71 33.765l-28.055 10.203c-5.202.096-11.553 2.74-16.682 4-14.976 3.682-29.37 5.959-44.868 5.219-5.8-.157-11.869-1.371-17.551-2.533-9.064-1.855-17.333-4.126-25.612-8.386-3.22-1.657-6.435-3.231-8.994-5.848l14.893 6.382c7.846 2.807 15.966 5.136 24.317 5.704 9.624.654 19.113-.338 28.636-1.678 23.212-3.269 44.651-10.097 66.529-18.319 8.793-3.305 17.84-6.537 26.32-10.583 6.247-2.169 12.398-5.445 18.325-8.394l18.245-8.915c-8.479-.409-16.796-1.132-25.176-2.559-17.991-3.065-37.068-8.05-53.983-14.893-2.863-1.158-6.33-1.953-8.527-4.186l31.55-11.473 24.27-11.019Z"/>
  <defs>
    <linearGradient id="c" x1="532.217" x2="482.297" y1="692.109" y2="724.412" gradientUnits="userSpaceOnUse">
      <stop offset="0" stop-color="#A82C0F"/>
      <stop offset="1" stop-color="#C7763E"/>
    </linearGradient>
  </defs>
  <path fill="url(#c)" d="m489.793 688.299 38.287 18.65c5.363 2.506 11.196 5.629 16.862 7.323l5.638 2.562-15.428 7.948c-20.014-4.821-39.085-11.115-57.991-19.285-3.201-1.383-6.874-2.41-9.911-4.083-1.252-.689-1.299-.814-1.727-2.096l24.27-11.019Z"/>
  <defs>
    <linearGradient id="d" x1="340.808" x2="309.3" y1="574.449" y2="680.371" gradientUnits="userSpaceOnUse">
      <stop offset="0" stop-color="#D5B399"/>
      <stop offset="1" stop-color="#E9D5C4"/>
    </linearGradient>
  </defs>
  <path fill="url(#d)" d="m349.64 713.939-.24.099c-.659-.475-.633-1.033-.9-1.788l-.337-.913-.163-1.587c-.212-.911-.457-1.303-.465-2.31l-.035-1.19c-.365-1.291-.385-2.156-.5-3.5-.284-3.312-.176-6.896-.245-10.25-.02-.979-.26-1.661-.55-2.591l-.739.017c-2.405.394-3.375-.28-5.658-.854-.85-.214-1.494-.36-2.285-.768-.836-.431-.404-.292-1.359-.546-.795-.211-.548-.085-1.339-.396l-.923-.393c-.673-.146-1.483.204-2.235-.025l-8.807-2.383c-.658-.161-1.238-.237-1.859-.514-.911-.407-1.771-.802-2.751-1.027-1.264-.29-2.948-.494-4.001-1.289-.844-.637-1.602-1.141-2.658-1.367-.581-.125-1.096-.224-1.608-.559l-.741-.555-.912.09c-2.414-1.124-6.122-2.681-8.756-2.953-2.254-.234-5.865-1.018-7.543-2.441l-.701-.615-.304.471c-1.467 3.56-.315 10.937-.356 14.889-.021 1.934-.525 4.562-.033 6.401.576 2.151.108 4.215.488 6.283.306 1.667.512 2.213.229 3.933l-.22-1.308c-1.311-6.897-1.061-14.234-1.053-21.239.04-33.661 4.482-68.097 9.912-101.261 1.09-6.656 1.654-13.828 3.84-20.228l2.339 2.815 13.472 11.477 43.168 33.984-8.577 43.479c-2.588 20.512-10.134 40.113-4.595 60.912Z"/>
  <path fill="#CB916B" d="m306.172 564.087 13.472 11.477 43.168 33.984-8.577 43.479-.704-.132c-1.119-1.425-2.943-2.484-4.354-3.661a91.776 91.776 0 0 1-7.491-6.985c-16.422-17.157-28.666-35.63-33.383-59.183l-2.131-18.979Z"/>
  <path fill="#fff" d="M362.812 609.548c5.568 2.813 10.962 7.865 16.188 11.407l42.685 27.855 43.986 25.911c7.774 4.338 17.128 8.135 24.122 13.578l-24.27 11.019-31.55 11.473-46.625 11.83c-9.708 1.154-20.118 3.04-29.589-.375-4.262-1.537-6.229-4.387-8.119-8.307-5.539-20.799 2.007-40.4 4.595-60.912l8.577-43.479Z"/>
  <defs>
    <linearGradient id="e" x1="575.452" x2="813.331" y1="480.427" y2="249.649" gradientUnits="userSpaceOnUse">
      <stop offset="0" stop-color="#FB9F3E"/>
      <stop offset="1" stop-color="#FCE0B8"/>
    </linearGradient>
  </defs>
  <path fill="url(#e)" d="m480.186 141.064-1.686-.687-.002-.379c1.997-.901 3.673-2.753 5.628-3.946 5.674-3.463 12.198-6.574 18.464-8.802l17.636-5.644c4.094-1.242 8.128-2.648 12.403-3.13 7.791-.878 15.924-.118 23.718.477a348.17 348.17 0 0 1 72.896 13.455c4.874 1.45 10.168 2.703 14.752 4.875 11.066 3.043 22.015 7.745 32.592 12.185 77.447 32.507 141.475 93.816 182.759 166.392l8.074 14.995c8.072 15.05 14.499 31.279 20.087 47.395 20.768 59.899 26.115 125.05 14.83 187.499-1.853 10.251-3.766 20.765-6.751 30.751-.337 1.126-.662 2.259-1.207 3.303l-27.658 32.622c-18.905 20.892-40.535 39.859-63.23 56.499l-11.512 8.061c-1.375.932-3.02 2.434-4.576 2.948.988-3.489 3.993-9.917 2.309-13.111 2.286-11.077 2.914-21.487 2.772-32.772l.92-1.114c1.504-2.066 2.437-4.882 3.53-7.188l6.772-14.192c6.595-14.095 11.521-29.057 15.735-44.016 13.153-46.687 16.558-96.324 8.705-144.297-.625-2.949 2.576-8.109 3.733-10.819 8.19-19.185 13.531-42.228 11.422-63.133-.809-8.028-2.735-15.195-5.353-22.789-.356-1.032-.659-1.773-1.185-2.755-2.551-3.962-4.377-8.464-6.888-12.497-6.845-10.996-16.351-18.778-26.576-26.389l-19.864-10.598c-3.43-.595-7.772-3.176-11.251-4.397l-11.934-3.819c-2.044-.579-4.733-.906-6.55-2.012-3.614-2.2-7.572-6.992-10.411-10.151l-50.906-41.065-21.539-13.448c-12.989-7.583-26.711-14.334-40.674-19.932l-15.05-5.515c-1.544-.542-3.902-1.878-5.361-1.259-1.593-.991-3.056-2.874-4.391-4.21l-8.824-8.605c-10.376-9.69-22.06-19.099-34.315-26.298-24.978-14.671-53.835-19.862-82.043-12.488Z"/>
  <path fill="#fff" d="M480.186 141.064c28.208-7.374 57.065-2.183 82.043 12.488 12.255 7.199 23.939 16.608 34.315 26.298l8.824 8.605c1.335 1.336 2.798 3.219 4.391 4.21 1.459-.619 3.817.717 5.361 1.259l15.05 5.515c13.963 5.598 27.685 12.349 40.674 19.932l21.539 13.448 50.906 41.065c2.839 3.159 6.797 7.951 10.411 10.151 1.817 1.106 4.506 1.433 6.55 2.012l11.934 3.819c3.479 1.221 7.821 3.802 11.251 4.397l19.864 10.598c10.225 7.611 19.731 15.393 26.576 26.389 2.511 4.033 4.337 8.535 6.888 12.497.526.982.829 1.723 1.185 2.755 2.618 7.594 4.544 14.761 5.353 22.789 2.109 20.905-3.232 43.948-11.422 63.133-1.157 2.71-4.358 7.87-3.733 10.819 7.853 47.973 4.448 97.61-8.705 144.297-4.214 14.959-9.14 29.921-15.735 44.016l-6.772 14.192c-1.093 2.306-2.026 5.122-3.53 7.188l-.92 1.114c.142 11.285-.486 21.695-2.772 32.772-4.297 14.523-9.765 26.864-22.988 35.335l-.088.045c-.755 1.973-1.502 2.853-3.136 4.161l-.436.354c-11.199 8.969-23.799 16.071-37.564 20.214-4.946 1.489-10.015 2.259-15.044 3.363l-5.644.892c-16.902.928-33.528-.282-50.283-2.473-2.421-1.571-7.337-2.036-10.181-2.63l-19.372-4.176-33.196-9.546-23.25-8.319c-2.488-.939-7.51-3.732-10.046-3.411-2.193-1.732-5.36-2.608-7.904-3.797l-5.638-2.562c-5.666-1.694-11.499-4.817-16.862-7.323l-38.287-18.65c-6.994-5.443-16.348-9.24-24.122-13.578l-43.986-25.911L379 620.955c-5.226-3.542-10.62-8.594-16.188-11.407l-43.168-33.984-13.472-11.477-2.339-2.815-1.335-1.769-.748-.003-1.375-1.497-.625-.003-1.125-1.125c-1.336-.861-.482.119-1.296-.827-.706-.821-1.007-1.401-2.026-1.867-1.358-.621-2.223-2.137-3.305-3.178-1.322-.194-1.652-1.024-2.5-2-.735-.11-1.004-.223-1.603-.705L286 546.745c-.987-.711-1.807-1.522-2.745-2.245-1.035-.798-1.666-1.545-2.454-2.595l-.299-.408c-1.328-.445-1.444-1.418-2.499-2-3.746-2.061-6.529-6.527-10.08-9.189l-.421-.311c-.351-1.06-.583-.949-1.5-1.5-.461-1.395-1.797-2.341-2.833-3.365l-6.58-6.517c-.767-.757-2.08-1.721-2.587-2.618-1.464-2.593-4.56-4.073-6-6.5-1.023-1.725-3.157-2.907-4-4.499-.939-1.777-2.556-2.849-3.747-4.498-.959-1.328-2.189-2.338-3.398-3.441-2.613-2.61-4.854-5.944-7.172-8.844-8.219-10.282-15.641-21.041-22.409-32.33l-5.464-11.025-.637-1.646-5.171-14.046c-3.974-13.824-5.651-29.56-2.635-43.73 1.965-9.23 5.788-17.658 10.364-25.85 1.564-1.763 2.783-4.183 4.154-6.131 2.486-3.531 5.194-7.004 8.11-10.193 3.198-3.499 6.618-7.112 10.304-10.088 2.805-2.265 6.289-4.221 8.683-6.926 1.6-1.808 2.939-4.089 4.332-6.083 6.917-10.529 15.483-20.707 23.9-30.05 21.338-23.685 45.67-44.123 71.836-62.266l28.495-16.22c13.244-7.143 27.003-12.896 41.129-18.042 2.937-1.07 7.168-3.431 10.235-3.353l.663.667c12.274-17.949 30.744-34.814 50.285-44.337 4.622-2.253 9.267-4.453 14.327-5.502Z"/>
  <path fill="#CB916B" d="M730.151 581.555c.983.058 1.976.16 2.901-.236 1.838-.786 2.711-.699 4.69-.344-2.017 1.753-4.293 4.177-6.599 5.465l-.992-4.885Z"/>
  <path fill="#E33A0D" d="m367.148 250.695 14.651-8.305c1.627-.839 2.685-1.743 4.54-1.398-2.325 4.024-6.688 5.679-10.642 7.811-3.496 1.885-7.036 3.945-10.673 5.524.381-1.629 1.017-2.4 2.124-3.632Z"/>
  <path fill="#CB916B" d="m767.061 522.358 1.887.903c-1.871 2.242-6.051 6.163-6.312 8.997l-1.514-.137-10.005 10.19c-1.563 1.66-3.491 3.362-4.807 5.213l-19.456 19.369c-2.302 2.304-4.659 5.113-7.275 7.023 1.196-1.655 2.322-3.667 3.676-5.166 1.665-1.843 5.643-4.636 6.496-6.797.585-1.478 1.829-2.997 2.628-4.448 1.477-1.89 3.584-3.617 5.314-5.312L747.99 542.1l19.071-19.742Z"/>
  <path fill="#FF7A02" d="m306.231 298.117.011-.498.503-.869c1.211-2.335 3.877-4.478 5.76-6.36 6.63-6.626 14.259-13.198 21.892-18.646l14.93-9.782c5.734-3.868 11.481-8.419 17.821-11.267-1.107 1.232-1.743 2.003-2.124 3.632l-.844.573-9.871 6.027c-10.595 6.952-20.99 14.328-30.647 22.542l-9.471 8.856c-2.541 2.451-4.443 4.85-7.96 5.792Z"/>
  <path fill="#D52E04" d="m683.405 673.314 35.343 1.103-.027 5.349c-12.906 2.103-26.714-.124-39.405-2.597l4.089-3.855ZM724.42 343.027l2.668.195c12.374 14.749 22.978 32.486 31.391 49.778l7.187 15.948c1.342 3.134 2.572 7.252 4.744 9.819-.754 1.198-1.445 2.676-2.66 3.451-1.188-4.827-3.371-9.616-5.249-14.218-9.698-23.756-23.405-44.108-38.081-64.973Z"/>
  <path fill="#F3C79C" d="m768.638 546.91 2.836 11.09c-.652.812-1.208 1.541-2.043 2.175-6.324 4.439-12.98 8.125-19.515 12.22-2.481 1.555-5.198 3.923-7.9 4.971 1.479-3.214 3.931-5.976 5.992-8.841l7.234-9.794c2.731-3.674 5.046-7.301 9.247-9.425l4.149-2.396ZM467.594 230.892l.161-2.142 1.37-1.125c.515-.71 1.125-1.837 1.625-2.625.482-.76 1.197-1.43 1.625-2.125l.38-.875a41.91 41.91 0 0 1 3.247-4.375l1-1.123.253-.752c.721-.602 1.221-1.07 1.747-1.86.672-1.007.297-.557 1.124-1.465l9.844-10.204.53-.466v-.51c-.768-.476-.971-.663-1.386-1.496-.376-.753-.219-.656-.736-1.174l-.378-.33c-.674-.656-1.263-1.184-2.125-1.62-1.159-.586-.602-.078-1.43-.901l-.445-.474c-1.325-.009-2.787-2.271-4.245-3l-.88.748-.625.002-7.173 7.304c-.968.957-2.413 1.902-2.97 3.152-.289.648-.099.439-.579.885l-1.153 1.034c-1.406 1.949.39.113-.74 1.289-.682.71-.802 1.086-1.834 1.086 5.973-7.253 12.021-14.676 20.163-19.618 10.851-6.585 21.402-9.284 33.961-6.22l-16.923 12.975c-9.976 7.016-18.09 15.311-25.351 25.08-2.561 3.445-5.024 7.982-8.057 10.925Z"/>
  <path fill="#E0E6F7" d="m709.572 583.07-88.202 70.835c-1.548 1.123-5.798 5.223-7.354 5.157-1.549-.067-2.879-.652-3.885-1.812l10.687-7.034 63.505-49.539 34.349-30.146c4.653-4.25 8.912-8.949 13.707-13.026-.799 1.451-2.043 2.97-2.628 4.448-.853 2.161-4.831 4.954-6.496 6.797-1.354 1.499-2.48 3.511-3.676 5.166l-10.007 9.154Z"/>
  <defs>
    <linearGradient id="f" x1="737.992" x2="753.436" y1="552.968" y2="564.371" gradientUnits="userSpaceOnUse">
      <stop offset="0" stop-color="#B96024"/>
      <stop offset="1" stop-color="#E09E66"/>
    </linearGradient>
  </defs>
  <path fill="url(#f)" d="M746.31 547.524c1.316-1.851 3.244-3.553 4.807-5.213l10.005-10.19 1.514.137.073 1.433c3.048 3.624 4.444 8.759 5.929 13.219l-4.149 2.396c-4.201 2.124-6.516 5.751-9.247 9.425l-7.234 9.794c-2.061 2.865-4.513 5.627-5.992 8.841l-4.274 3.609c-1.979-.355-2.852-.442-4.69.344-.925.396-1.918.294-2.901.236-.927-4.564-1.208-10.54-3.297-14.662l19.456-19.369Z"/>
  <path fill="#C06A2F" d="M746.31 547.524c1.316-1.851 3.244-3.553 4.807-5.213l10.005-10.19 1.514.137.073 1.433c-.209 1.095-.396 2.06-1.06 2.98-1.51 2.093-3.997 3.752-5.822 5.603l-13.077 13.471h-1.5c.459-1.387 1.63-2.564 2.495-3.745l.51-.628c.78-.973.258-.255.867-1.372l.375-.625c.324-.595.603-1.208.813-1.851Z"/>
  <path fill="#FF7A02" d="M355.384 295.127c2.638-1.938 5.011-1.562 8.107-1.431l-15.209 39.858-10.236 30.294-.685.05c-5.51.443-10.95 1.851-16.325 3.09-22.206 5.119-47.016 14.388-62.221 32.256-1.188 1.396-2.385 2.793-3.077 4.506l-1.19-.774.168-.381c1.857-3.675 5.956-7.122 9.051-9.753 10.957-9.315 23.689-16.109 37.176-20.991l16.237-5.069c2.271-2.936 3.915-6.456 5.673-9.717l10.483-20.471.888-.521 21.16-40.946Z"/>
  <path fill="#D52E04" d="M501.002 194.887c5.789 2.949 11.912 5.96 17.326 9.549 9.134 6.054 17.075 13.4 24.926 21.006l2.831 3.308-1.409.465c-17.617-1.696-35.006-2.139-52.676-.926-7.666.527-15.974 1.163-23.415 3.069l-.991-.466c3.033-2.943 5.496-7.48 8.057-10.925 7.261-9.769 15.375-18.064 25.351-25.08Z"/>
  <path fill="#F3C79C" d="m252.38 387.982 2.18-3.982c12.334-21.181 37.239-32.969 59.312-40.999 6.379-2.321 12.876-4.763 19.464-6.407l-10.483 20.471c-1.758 3.261-3.402 6.781-5.673 9.717l-16.237 5.069c-13.487 4.882-26.219 11.676-37.176 20.991-3.095 2.631-7.194 6.078-9.051 9.753l-.168.381c-.094-2.369-1.068-4.795-1.519-7.133-.497-2.575-.535-5.246-.649-7.861Z"/>
  <path fill="#FF7A02" d="M727.088 343.222c12.586 2.135 25.396 5.542 37.347 10.014 2.692 1.007 6.061 1.933 8.471 3.489 2.77.723 4.978 2.148 7.658 3.025 1.947.638 3.468 1.878 4.936 3.254 1.036-.739.863-.895 1.203-2.06-.417-3.977-1.316-8.071-.944-12.07 5.04 15.423 4.005 29.92-2.419 44.792-2.838 8.74-8.02 17.374-12.93 25.101-2.172-2.567-3.402-6.685-4.744-9.819L758.479 393c-8.413-17.292-19.017-35.029-31.391-49.778Z"/>
  <path fill="#CB916B" d="M772.906 356.725c2.77.723 4.978 2.148 7.658 3.025 1.947.638 3.468 1.878 4.936 3.254 1.036-.739.863-.895 1.203-2.06 1.043 6.156-.094 12.634-.834 18.759-2.227-2.818-3.599-6.444-5.614-9.453l-3.5-6-2.641-4.294c-.87-1.193-1.202-1.661-1.208-3.231Z"/>
  <path fill="#FF7A02" d="M726.854 566.893c2.089 4.122 2.37 10.098 3.297 14.662l.992 4.885-.164.469c4.189 22.797 7.142 45.059 6.023 68.273-1.232 7.175-2.588 15.913-8.86 20.473-2.905 2.113-5.932 3.344-9.421 4.111l.027-5.349-35.343-1.103 27.742-33.391 5.608-7.894c.423-1.577-.048-3.647-.236-5.279l-1.399-11.333-5.548-32.347 10.007-9.154c2.616-1.91 4.973-4.719 7.275-7.023Z"/>
  <path fill="#E0E6F7" d="M438.347 363.069c-4.7-1.659-9.943-2.572-14.847-3.465l-14.165-1.778 20.964-57.236 3.711-8.088c.694-1.728 1.393-3.334 2.245-5.002l1.608-3.749 13.139-26.249c.565-1.152 1.314-2.097 1.877-3.22l4.123-8.28 2.5-4.5c.554-1.388 1.678-2.212 2.748-3.247l.5.5.005-.505c.951-.638.446-.5 1.49-.5l-34.03 65.822c21.002 3.628 41.125 10.499 61.035 17.86l3.25 1.207c1.509.466 2.057.695 3.223 1.723l-59.376 38.707ZM724.42 343.027c-3.923-.506-8.427-.434-12.17-1.282l-2-.117c-1.033-1.311-1.542-2.868-2.279-4.352l-4.709-9.168c-6.138-12.07-12.272-24.983-20.011-36.117 12.718 2.953 25.634 4.758 38.264 8.207 20.535 5.608 45.506 17.59 57.34 36.052 2.091 3.261 6.077 9.01 6.904 12.624-.372 3.999.527 8.093.944 12.07-.34 1.165-.167 1.321-1.203 2.06-1.468-1.376-2.989-2.616-4.936-3.254-2.68-.877-4.888-2.302-7.658-3.025-2.41-1.556-5.779-2.482-8.471-3.489-11.951-4.472-24.761-7.879-37.347-10.014l-2.668-.195Z"/>
  <path fill="#E33A0D" d="M615.485 198.579c2.082-.212 3.109.076 5.015.843 14.044 5.649 28.488 11.998 41.758 19.305 13.256 7.3 25.862 15.692 38.156 24.502 16.201 11.608 31.583 24.389 45.149 39.021l-.424 1.047c-23.226-4.072-46.69-6.852-70.305-6.671l-59.349-78.047Z"/>
  <defs>
    <linearGradient id="g" x1="369.809" x2="289.615" y1="169.368" y2="340.863" gradientUnits="userSpaceOnUse">
      <stop offset="0" stop-color="#E92E00"/>
      <stop offset="1" stop-color="#FFAF10"/>
    </linearGradient>
  </defs>
  <path fill="url(#g)" d="m414.911 190.236.663.667-29.235 50.089c-1.855-.345-2.913.559-4.54 1.398l-14.651 8.305c-6.34 2.848-12.087 7.399-17.821 11.267l-14.93 9.782c-7.633 5.448-15.262 12.02-21.892 18.646-1.883 1.882-4.549 4.025-5.76 6.36l-.503.869-.011.498c-15.553 3.829-30.47 7.932-45.224 14.334-5.53 2.399-11.151 4.805-16.192 8.146l-4.826 2.721-.259-.328.281-.346c17.342-23.195 36.211-45.121 58.449-63.81 9.286-9.71 21.74-18.622 32.97-25.991 5.7-4.327 11.854-7.899 17.971-11.585 10.747-6.475 21.729-12.56 33.239-17.579l16.101-6.568c5.027-1.861 12.002-3.589 16.17-6.875Z"/>
  <path fill="#E33A0D" d="m320.272 243.113-1.147 2.639.75.123.875-1.12.75-.005 1.25-1.495.75-.005.75-.995.675.582c-15.621 11.916-31.405 23.716-45.37 37.61l-15.576 16.539-9.105 10.785c-2.795 3.508-5.694 7.746-9.488 10.221-.386.937-.538 1.593-.571 2.605l-4.826 2.721-.259-.328.281-.346c17.342-23.195 36.211-45.121 58.449-63.81 3.727-.143 6.16-2.777 9.01-5.018 4.442-3.491 8.727-6.752 12.802-10.703Z"/>
  <path fill="#FF7A02" d="M609.759 192.665c1.459-.619 3.817.717 5.361 1.259l15.05 5.515c13.963 5.598 27.685 12.349 40.674 19.932l21.539 13.448 50.906 41.065c2.839 3.159 6.797 7.951 10.411 10.151 1.817 1.106 4.506 1.433 6.55 2.012l11.934 3.819c3.479 1.221 7.821 3.802 11.251 4.397l19.864 10.598c10.225 7.611 19.731 15.393 26.576 26.389 2.511 4.033 4.337 8.535 6.888 12.497.526.982.829 1.723 1.185 2.755 2.618 7.594 4.544 14.761 5.353 22.789 2.109 20.905-3.232 43.948-11.422 63.133-1.157 2.71-4.358 7.87-3.733 10.819 7.853 47.973 4.448 97.61-8.705 144.297-4.214 14.959-9.14 29.921-15.735 44.016l-6.772 14.192c-1.093 2.306-2.026 5.122-3.53 7.188l-.92 1.114c.118-1.28.283-2.14.851-3.319l10.479-22.078c7.695-18.254 13.772-37.581 18.134-56.903l3.454-17.75c.158-.739.336-1.442.393-2.198l.116-1.552.839-4.486c.255-1.298-.25-2.499.292-3.808l.256-.456-.46-.901-.127 1.651c-.281 1.262-.334 3.121-.768 4.233-.468 1.198-.283 2.6-.619 3.879l-5.98 28.063c-4.444 17.806-10.24 35.296-17.653 52.092l-8.979 18.291c-1.596-13.501-3.44-26.735-6.199-40.058l-3.037-12.562c-.328-1.297-1.302-4.033-1.195-5.338.206-2.516 2.058-6.361 2.745-8.958 2.129-8.055 3.999-16.206 5.327-24.434 2.468-15.292 3.556-30.867 3.593-46.35.013-5.676-.758-11.344-.605-16.999-4.148 3.17-7.482 8.783-10.784 12.863l-13.609 16.289-1.887-.903c5.573-5.731 10.476-12.128 15.462-18.363 16.515-20.649 31.004-42.52 43.265-65.957 11.961-22.867 19.65-49.555 15.17-75.46-1.048-6.058-3.012-11.736-4.84-17.578l-6.95-13.08c-18.302-28.708-52.213-41.641-84.029-48.623l.424-1.047c-13.566-14.632-28.948-27.413-45.149-39.021-12.294-8.81-24.9-17.202-38.156-24.502-13.27-7.307-27.714-13.656-41.758-19.305-1.906-.767-2.933-1.055-5.015-.843-2.111-1.538-3.946-3.987-5.726-5.914Z"/>
  <defs>
    <linearGradient id="h" x1="682.798" x2="403.525" y1="800.651" y2="498.738" gradientUnits="userSpaceOnUse">
      <stop offset="0" stop-color="#B88D61"/>
      <stop offset="1" stop-color="#FFE5BD"/>
    </linearGradient>
  </defs>
  <path fill="url(#h)" d="M319.644 575.564c1.871.484 2.741.84 4.135 2.234.63.63.299.4 1.219.705l.438.531c2.37 2.627 5.873 4.296 8.345 6.768.943.943-.082.013 1.217.701l.938.866c1.056 1.025 2.147 2.165 3.562 2.634l.43.531c.713.789 1.459 1.283 2.324 1.875l9.592 7.361 5.156 3.985.469.474c1.034 1.03 2.532 2.598 4.029 2.774l.452.522c.702.787.419.494 1.305 1.225l.495-.495c.736.736.993.653 1 1.745l.875.375 1.125 1.125.625.003L368.75 613l.625.003.38.247c-.288-.859-.491-1.038-1-1.75-.923-1.29-2.436-2.826-1.878-4.5l.878-1.5c-.184-1.24-.423-1.882-1-3 .085-.991.655-2.371 1.495-3l.505-.25.5-1.5.247-.747c.733-2.692 2.223-4.195 2.375-7.003-.573-.574-.218-.298-1.122-.75l-.13-1.375-.609-.375c-2.296-1.461-4.588-3.77-7.016-4.878-.971-.443-.637-.211-1.25-1.122l-.748-.003L359.75 580l-.625-.003-.485-.444c-.83-.736-1.689-1.181-2.39-2.053l-.748-.003c-1.024-1.224-2.042-1.631-3.002-2.747l.5-.272c15.035 11.631 31.127 22.153 47 32.59 34.75 22.849 70.804 43.403 107.998 62l36.054 16.82c6.963 3.008 15.117 5.604 21.59 9.456 37.07 14.054 74.008 27.962 113.33 34.411 18.321 3.005 36.309 4.598 54.825 2.502 8.65-.979 18.512-2.74 26.453-6.461l6.386-3.594c-.755 1.973-1.502 2.853-3.136 4.161l-.436.354c-11.199 8.969-23.799 16.071-37.564 20.214-4.946 1.489-10.015 2.259-15.044 3.363l-5.644.892c-16.902.928-33.528-.282-50.283-2.473-2.421-1.571-7.337-2.036-10.181-2.63l-19.372-4.176-33.196-9.546-23.25-8.319c-2.488-.939-7.51-3.732-10.046-3.411-2.193-1.732-5.36-2.608-7.904-3.797l-5.638-2.562c-5.666-1.694-11.499-4.817-16.862-7.323l-38.287-18.65c-6.994-5.443-16.348-9.24-24.122-13.578l-43.986-25.911L379 620.955c-5.226-3.542-10.62-8.594-16.188-11.407l-43.168-33.984Z"/>
  <defs>
    <linearGradient id="i" x1="698.247" x2="518.661" y1="334.776" y2="354.141" gradientUnits="userSpaceOnUse">
      <stop offset="0" stop-color="#E5752C"/>
      <stop offset="1" stop-color="#FCA361"/>
    </linearGradient>
  </defs>
  <path fill="url(#i)" d="M517.925 181.912c12.934 3.217 22.094 9.842 32.399 17.987 3.81 3.01 8.148 6.222 11.193 9.991 13.112 11.932 24.841 25.688 35.822 39.581 45.842 58.003 78.371 126.277 103.501 195.451l14.266 41.52-21.271 21.973-46.151-126.186-.553-.129c-.474-.728-.631-1.354-.874-2.18-3.188-2.772-8.354-4.193-12.175-6.065l-32.683-15.909c-3.377-2.183-7.241-3.8-10.852-5.568l-18.638-9.19-61.18-26.234c4.648-3.559 10.081-6.316 15.17-9.194 11.88-6.72 24.725-13.877 37.589-18.413l14.887-6.447c3.196-1.323 7.44-2.593 10.075-4.873-10.689-14.966-22.516-29.053-35.224-42.341-1.645-1.72-3.968-4.797-5.935-5.976-.484-.29-1.995-.377-2.615-.495l1.409-.465-2.831-3.308c-7.851-7.606-15.792-14.952-24.926-21.006-5.414-3.589-11.537-6.6-17.326-9.549l16.923-12.975Z"/>
  <path fill="#fff" d="M601.399 357.946c9.771-4.219 19.985-6.08 30.075-9.207l10.583 21.761c1.374 2.971 3.442 6.265 4.2 9.42-3.188-2.772-8.354-4.193-12.175-6.065l-32.683-15.909Z"/>
  <path fill="#CB916B" d="m588.45 278.027.191.366 28.542 44.253-13.978 5.858c-2.035-3.918-5.001-7.11-7.772-10.504-8.817-10.801-18.979-22.855-31.945-28.653l14.887-6.447c3.196-1.323 7.44-2.593 10.075-4.873Z"/>
  <path fill="#E0E6F7" d="M510.729 316.954c4.648-3.559 10.081-6.316 15.17-9.194 11.88-6.72 24.725-13.877 37.589-18.413 12.966 5.798 23.128 17.852 31.945 28.653 2.771 3.394 5.737 6.586 7.772 10.504l-31.296 14.684-61.18-26.234Z"/>
  <path fill="#FF7A02" d="m510.729 316.954 61.18 26.234 18.638 9.19c3.611 1.768 7.475 3.385 10.852 5.568l32.683 15.909c3.821 1.872 8.987 3.293 12.175 6.065.243.826.4 1.452.874 2.18l.231.812 4.899 14.463 18.989 74.548c3.215 12.891 7.39 25.748 9.517 38.87l1.853 6.91c-.06 2.149-2.448 3.781-3.994 5.244l-47.871 44.383-39.255 30.718-27.378 19.251c-6.538 4.271-13.64 8.167-19.807 12.93l-73.441-40.261-22.561-14.274-65.656-43.824-10.232-7.17c-2.067-1.413-4.472-2.76-6.143-4.64l-.323-1.142c.084-2.635.882-5.435 1.401-8.025 7.24-36.133 17.618-71.387 28.229-106.642l3.115-10.949c.271-.867.658-2.761 1.157-3.468 1.108-1.569 5.754-4.121 7.507-5.357l30.979-21.408 59.376-38.707 13.006-7.408Z"/>
  <defs>
    <linearGradient id="j" x1="531.115" x2="553.646" y1="554.584" y2="349.588" gradientUnits="userSpaceOnUse">
      <stop offset="0" stop-color="#FF9F27"/>
      <stop offset="1" stop-color="#FDE0C7"/>
    </linearGradient>
  </defs>
  <path fill="url(#j)" d="m464.117 435.368-28.754-30.617 56.155-39.568 21.628-14.527c2.452-1.575 5.078-3.736 7.775-4.74l81.644 38.022 16.934 8.21c1.898.956 4.731 1.996 6.17 3.537l8.43 35.815 3.984 16c.752 2.903 1.812 5.946 2.208 8.918 1.679 4.212 2.552 9.357 3.57 13.804l6.325 27.441-105.778 59.179c-1.931-1.902-3.301-5.179-4.548-7.606l-5.543-10.056-19.755-33.458c-15.227-24.687-31.634-48.239-50.445-70.354Z"/>
</svg>
