<?xml version="1.0" standalone="no"?>
<!DOCTYPE svg PUBLIC "-//W3C//DTD SVG 20010904//EN"
 "http://www.w3.org/TR/2001/REC-SVG-20010904/DTD/svg10.dtd">
<svg version="1.0" xmlns="http://www.w3.org/2000/svg"
 width="700.000000pt" height="700.000000pt" viewBox="0 0 700.000000 700.000000"
 preserveAspectRatio="xMidYMid meet">
<metadata>
Created by potrace 1.14, written by Peter Selinger 2001-2017
</metadata>
<g transform="translate(0.000000,700.000000) scale(0.100000,-0.100000)"
fill="#000000" stroke="none">
<path d="M3265 6963 c-454 -38 -968 -189 -1365 -400 -664 -353 -1167 -876
-1500 -1558 -43 -88 -94 -200 -114 -250 -43 -110 -135 -401 -146 -464 -5 -25
-20 -104 -34 -176 -37 -193 -47 -295 -53 -551 -6 -246 3 -396 38 -614 72 -456
265 -953 514 -1325 201 -300 551 -673 818 -871 940 -699 2068 -884 3164 -518
244 82 537 220 760 359 796 497 1338 1286 1538 2235 73 345 84 773 29 1150
-97 673 -365 1263 -804 1775 -106 122 -343 353 -465 450 -229 183 -550 372
-845 498 -312 132 -686 225 -1030 257 -106 9 -410 11 -505 3z m392 -313 c203
-47 372 -152 597 -370 96 -93 166 -177 369 -445 138 -181 251 -331 252 -332 0
-1 77 -7 170 -13 363 -23 610 -77 817 -181 163 -82 273 -182 350 -320 112
-200 116 -459 13 -720 -86 -218 -312 -570 -515 -804 -101 -116 -437 -449 -590
-584 -146 -129 -644 -524 -738 -586 -29 -19 -39 -31 -30 -36 6 -4 17 -5 23 -2
5 4 187 148 403 321 216 173 394 313 396 311 3 -3 46 -258 62 -370 5 -33 0
-44 -58 -115 -156 -193 -241 -294 -249 -294 -5 0 -9 -4 -9 -9 0 -14 157 -35
252 -35 209 2 263 101 239 434 -7 85 -20 202 -30 259 l-17 105 34 30 c19 17
89 66 156 109 160 103 152 94 137 164 -7 32 -24 82 -37 110 -15 32 -22 58 -17
66 11 18 181 223 221 266 l33 36 -5 -205 c-5 -218 -26 -380 -71 -534 l-23 -80
23 -96 c20 -81 65 -344 65 -380 0 -6 5 -8 11 -4 8 5 8 1 0 -14 -6 -11 -11 -50
-11 -86 0 -210 -59 -385 -162 -482 -104 -97 -242 -136 -483 -136 -220 0 -437
37 -722 123 -660 198 -1400 561 -2100 1031 -56 37 -105 68 -107 68 -3 0 -3 -6
0 -14 3 -7 -5 -35 -17 -60 -15 -34 -20 -58 -16 -86 3 -27 2 -38 -5 -33 -7 3
-8 1 -4 -6 4 -6 11 -9 16 -6 4 3 10 -2 14 -10 12 -33 604 -406 899 -566 54
-30 99 -58 99 -64 0 -13 -177 -92 -336 -149 -183 -66 -492 -145 -597 -153
-179 -12 -228 15 -249 138 -9 54 -10 93 -1 158 18 139 124 670 133 665 4 -3 8
0 8 5 0 6 -4 11 -9 11 -4 0 -62 42 -127 93 -65 51 -155 120 -199 153 -44 34
-111 90 -150 125 -38 34 -63 55 -54 45 13 -14 15 -25 8 -50 -13 -47 -66 -411
-84 -576 -9 -80 -18 -224 -21 -320 -3 -96 -8 -186 -11 -200 l-6 -25 -7 25 c-5
14 -8 51 -9 84 -1 54 -5 64 -49 125 -112 153 -227 385 -301 608 -74 223 -110
412 -126 663 l-7 105 33 43 32 43 31 -28 c17 -15 10 -5 -15 22 -50 54 -142
174 -206 270 -137 203 -209 456 -184 638 27 194 123 348 336 537 22 20 74 83
115 140 78 109 376 419 480 499 37 29 27 18 -30 -35 -151 -138 -299 -294 -406
-427 -57 -72 -102 -132 -100 -134 1 -2 42 17 89 42 102 54 204 93 375 141
l126 35 88 80 c146 131 307 243 463 322 39 19 80 46 92 58 11 13 80 125 153
249 132 226 179 290 280 387 239 227 502 303 807 233z m-1588 -704 c-13 -13
-199 -136 -199 -132 0 6 130 100 165 119 29 16 42 21 34 13z m-209 -140 c0 -2
-8 -10 -17 -17 -16 -13 -17 -12 -4 4 13 16 21 21 21 13z m-40 -30 c0 -2 -8
-10 -17 -17 -16 -13 -17 -12 -4 4 13 16 21 21 21 13z m-976 -2496 c26 -195 62
-359 115 -518 92 -279 188 -478 348 -717 51 -77 80 -124 62 -105 -99 113 -274
418 -363 635 -119 294 -198 673 -194 937 l1 103 7 -105 c4 -58 15 -161 24
-230z m808 -1237 l-27 -55 -3 52 c-4 72 1 83 32 69 l25 -12 -27 -54z m2389
-369 c151 -57 386 -124 534 -155 61 -12 114 -25 118 -29 14 -12 -235 -122
-398 -176 -190 -62 -343 -97 -520 -120 -174 -21 -428 -22 -580 0 -134 19 -295
54 -295 64 0 4 59 29 130 55 72 26 186 71 253 99 133 56 535 257 576 288 14
11 33 20 42 20 8 0 71 -21 140 -46z m-896 -730 c139 -21 373 -28 530 -15 77 6
165 13 195 16 50 4 48 3 -20 -11 -126 -24 -465 -30 -629 -9 -76 9 -163 23
-193 31 -57 15 -50 14 117 -12z m818 9 c-7 -2 -19 -2 -25 0 -7 3 -2 5 12 5 14
0 19 -2 13 -5z"/>
<path d="M3400 6309 c-74 -14 -150 -59 -220 -128 -36 -36 -42 -44 -13 -17 49
47 54 49 78 36 34 -18 65 -48 65 -63 0 -7 -19 -31 -41 -52 -48 -47 -149 -179
-149 -196 0 -7 9 -9 23 -5 94 23 434 33 596 17 l65 -6 99 -109 c100 -110 237
-281 237 -296 0 -4 -66 -36 -147 -70 -171 -72 -318 -147 -488 -249 -77 -46
-127 -71 -140 -68 -11 3 -85 28 -165 56 -149 52 -309 96 -369 103 l-33 3 -83
-225 -83 -225 105 -17 c57 -10 111 -21 118 -26 10 -5 -34 -40 -149 -119 l-163
-112 -77 -268 c-115 -396 -206 -758 -206 -822 0 -23 39 -52 343 -257 451 -303
499 -333 861 -532 l309 -169 101 65 c146 95 310 213 483 349 177 139 593 520
593 543 -1 26 -43 198 -144 589 -52 206 -94 376 -93 378 2 1 74 -192 161 -430
87 -237 161 -438 165 -444 4 -8 38 19 99 80 l92 92 -71 205 c-311 898 -672
1548 -1135 2047 -146 157 -306 280 -418 321 -64 24 -147 32 -206 21z m1173
-1546 c31 -64 55 -118 53 -121 -6 -6 -346 160 -346 169 0 6 199 67 226 68 5 1
36 -52 67 -116z"/>
<path d="M3057 5797 c-35 -54 -261 -517 -252 -517 6 0 277 532 272 536 -2 3
-11 -6 -20 -19z"/>
<path d="M2181 5351 c-8 -5 -55 -87 -105 -182 l-91 -174 -130 -46 c-146 -52
-296 -124 -365 -174 -60 -45 -142 -130 -174 -183 -25 -41 -26 -45 -15 -107 6
-36 12 -65 13 -65 0 0 35 33 77 73 86 83 197 146 344 195 82 27 204 57 263 64
21 3 31 24 92 193 37 105 86 238 109 298 22 59 41 109 41 112 0 8 -44 5 -59
-4z"/>
<path d="M4972 5352 c2 -4 28 -52 59 -107 32 -55 79 -144 105 -197 l48 -97 58
-7 58 -7 99 -147 c102 -153 185 -306 242 -447 23 -57 36 -80 44 -73 17 14 102
180 130 253 70 187 49 337 -71 496 -77 102 -227 198 -399 256 -67 23 -336 85
-366 85 -6 0 -9 -3 -7 -8z"/>
<path d="M1240 3535 c13 -14 26 -25 28 -25 3 0 -5 11 -18 25 -13 14 -26 25
-28 25 -3 0 5 -11 18 -25z"/>
<path d="M1310 3456 c0 -2 8 -10 18 -17 15 -13 16 -12 3 4 -13 16 -21 21 -21
13z"/>
<path d="M1445 3320 c27 -27 51 -50 54 -50 3 0 -17 23 -44 50 -27 28 -51 50
-54 50 -3 0 17 -22 44 -50z"/>
<path d="M1540 3235 c19 -19 36 -35 39 -35 3 0 -10 16 -29 35 -19 19 -36 35
-39 35 -3 0 10 -16 29 -35z"/>
<path d="M1590 3196 c0 -2 8 -10 18 -17 15 -13 16 -12 3 4 -13 16 -21 21 -21
13z"/>
<path d="M1650 3145 c13 -14 26 -25 28 -25 3 0 -5 11 -18 25 -13 14 -26 25
-28 25 -3 0 5 -11 18 -25z"/>
</g>
</svg>
